<svg width="826" height="221" viewBox="0 0 826 221" fill="none" xmlns="http://www.w3.org/2000/svg">
<path d="M79.3641 220.68C64.4307 220.68 50.9907 217.32 39.0441 210.6C27.2841 203.693 17.9507 194.36 11.0441 182.6C4.32406 170.653 0.964063 157.307 0.964063 142.56C0.964063 127.627 4.32406 114.28 11.0441 102.52C17.9507 90.5733 27.2841 81.24 39.0441 74.52C50.9907 67.6133 64.4307 64.16 79.3641 64.16C94.2974 64.16 107.644 67.6133 119.404 74.52C131.164 81.24 140.404 90.5733 147.124 102.52C154.031 114.28 157.484 127.627 157.484 142.56L150.484 153.76C150.484 166.453 147.311 177.84 140.964 187.92C134.804 198 126.404 206.027 115.764 212C105.124 217.787 92.9907 220.68 79.3641 220.68ZM79.3641 205C91.1241 205 101.577 202.293 110.724 196.88C120.057 191.28 127.337 183.813 132.564 174.48C137.977 164.96 140.684 154.32 140.684 142.56C140.684 130.613 137.977 119.973 132.564 110.64C127.337 101.12 120.057 93.6533 110.724 88.24C101.577 82.64 91.1241 79.84 79.3641 79.84C67.7907 79.84 57.3374 82.64 48.0041 88.24C38.6707 93.6533 31.2974 101.12 25.8841 110.64C20.4707 119.973 17.7641 130.613 17.7641 142.56C17.7641 154.32 20.4707 164.96 25.8841 174.48C31.2974 183.813 38.6707 191.28 48.0041 196.88C57.3374 202.293 67.7907 205 79.3641 205ZM149.084 219C146.657 219 144.604 218.253 142.924 216.76C141.431 215.08 140.684 213.027 140.684 210.6V159.36L146.004 142.56H157.484V210.6C157.484 213.027 156.737 215.08 155.244 216.76C153.751 218.253 151.697 219 149.084 219ZM253.443 220.96C240.003 220.96 227.963 218.253 217.323 212.84C206.683 207.24 198.19 199.12 191.843 188.48C185.683 177.84 182.603 164.867 182.603 149.56V74.24C182.603 71.8133 183.35 69.8533 184.843 68.36C186.523 66.68 188.576 65.84 191.003 65.84C193.43 65.84 195.39 66.68 196.883 68.36C198.563 69.8533 199.403 71.8133 199.403 74.24V149.56C199.403 161.693 201.736 171.867 206.403 180.08C211.256 188.107 217.696 194.173 225.723 198.28C233.936 202.2 243.176 204.16 253.443 204.16C263.523 204.16 272.576 202.2 280.603 198.28C288.63 194.36 294.976 189.133 299.643 182.6C304.31 175.88 306.643 168.32 306.643 159.92H320.643C319.896 171.493 316.443 181.947 310.283 191.28C304.123 200.427 296.096 207.707 286.203 213.12C276.496 218.347 265.576 220.96 253.443 220.96ZM315.043 219C312.616 219 310.563 218.253 308.883 216.76C307.39 215.08 306.643 213.027 306.643 210.6V74.24C306.643 71.6267 307.39 69.5733 308.883 68.08C310.563 66.5867 312.616 65.84 315.043 65.84C317.656 65.84 319.71 66.5867 321.203 68.08C322.696 69.5733 323.443 71.6267 323.443 74.24V210.6C323.443 213.027 322.696 215.08 321.203 216.76C319.71 218.253 317.656 219 315.043 219ZM429.802 220.68C414.868 220.68 401.428 217.32 389.482 210.6C377.722 203.693 368.388 194.36 361.482 182.6C354.762 170.653 351.402 157.213 351.402 142.28C351.402 127.347 354.762 114 361.482 102.24C368.388 90.48 377.722 81.24 389.482 74.52C401.428 67.6133 414.868 64.16 429.802 64.16C443.242 64.16 455.282 67.0533 465.922 72.84C476.748 78.6267 485.148 86.3733 491.122 96.08V8.71999C491.122 6.10665 491.868 4.05332 493.362 2.55998C495.042 1.06666 497.095 0.319995 499.522 0.319995C502.135 0.319995 504.188 1.06666 505.682 2.55998C507.175 4.05332 507.922 6.10665 507.922 8.71999V143.96C507.735 158.52 504.188 171.587 497.282 183.16C490.375 194.733 481.042 203.88 469.282 210.6C457.708 217.32 444.548 220.68 429.802 220.68ZM429.802 205C441.562 205 452.015 202.293 461.162 196.88C470.495 191.28 477.775 183.813 483.002 174.48C488.415 164.96 491.122 154.227 491.122 142.28C491.122 130.333 488.415 119.693 483.002 110.36C477.775 101.027 470.495 93.6533 461.162 88.24C452.015 82.64 441.562 79.84 429.802 79.84C418.228 79.84 407.775 82.64 398.442 88.24C389.108 93.6533 381.735 101.027 376.322 110.36C370.908 119.693 368.202 130.333 368.202 142.28C368.202 154.227 370.908 164.96 376.322 174.48C381.735 183.813 389.108 191.28 398.442 196.88C407.775 202.293 418.228 205 429.802 205ZM558.317 219C555.891 219 553.837 218.253 552.157 216.76C550.664 215.08 549.917 213.027 549.917 210.6V74.24C549.917 71.6267 550.664 69.5733 552.157 68.08C553.837 66.5867 555.891 65.84 558.317 65.84C560.931 65.84 562.984 66.5867 564.477 68.08C565.971 69.5733 566.717 71.6267 566.717 74.24V210.6C566.717 213.027 565.971 215.08 564.477 216.76C562.984 218.253 560.931 219 558.317 219ZM558.037 33.64C554.491 33.64 551.411 32.4267 548.797 30C546.371 27.3867 545.157 24.2133 545.157 20.48C545.157 16.1867 546.464 13.0133 549.077 10.96C551.877 8.71999 554.957 7.59998 558.317 7.59998C561.491 7.59998 564.384 8.71999 566.997 10.96C569.797 13.0133 571.197 16.1867 571.197 20.48C571.197 24.2133 569.891 27.3867 567.277 30C564.851 32.4267 561.771 33.64 558.037 33.64ZM671.514 219C661.247 218.813 652.1 216.48 644.074 212C636.047 207.333 629.794 200.987 625.314 192.96C620.834 184.747 618.594 175.507 618.594 165.24V25.8C618.594 23.1867 619.34 21.1333 620.834 19.64C622.514 17.96 624.567 17.12 626.994 17.12C629.607 17.12 631.66 17.96 633.154 19.64C634.834 21.1333 635.674 23.1867 635.674 25.8V165.24C635.674 176.067 639.034 184.933 645.754 191.84C652.474 198.56 661.154 201.92 671.794 201.92H677.954C680.567 201.92 682.62 202.76 684.114 204.44C685.794 205.933 686.634 207.987 686.634 210.6C686.634 213.027 685.794 215.08 684.114 216.76C682.62 218.253 680.567 219 677.954 219H671.514ZM596.754 86.56C594.514 86.56 592.647 85.9067 591.154 84.6C589.847 83.1067 589.194 81.24 589.194 79C589.194 76.76 589.847 74.9867 591.154 73.68C592.647 72.1867 594.514 71.44 596.754 71.44H672.634C674.874 71.44 676.647 72.1867 677.954 73.68C679.447 74.9867 680.194 76.76 680.194 79C680.194 81.24 679.447 83.1067 677.954 84.6C676.647 85.9067 674.874 86.56 672.634 86.56H596.754ZM718.923 210.32L702.403 206.12L812.443 68.92L824.203 78.16L718.923 210.32ZM708.283 219C703.243 219 700.723 216.48 700.723 211.44C700.723 206.4 703.243 203.88 708.283 203.88H817.763C822.803 203.88 825.323 206.4 825.323 211.44C825.323 216.48 822.803 219 817.763 219H708.283ZM708.283 80.96C703.243 80.96 700.723 78.44 700.723 73.4C700.723 68.36 703.243 65.84 708.283 65.84H817.763C822.803 65.84 825.323 68.36 825.323 73.4C825.323 78.44 822.803 80.96 817.763 80.96H708.283Z" fill="black"/>
</svg>
