<svg width="20" height="21" viewBox="0 0 20 21" fill="none" xmlns="http://www.w3.org/2000/svg">
<path d="M9.74174 20.175C7.94507 20.175 6.33507 19.755 4.91174 18.915C3.4884 18.0517 2.35674 16.885 1.51674 15.415C0.700072 13.945 0.291738 12.2883 0.291738 10.445C0.291738 8.57833 0.711738 6.91 1.55174 5.44C2.41507 3.97 3.58174 2.815 5.05174 1.975C6.52174 1.11167 8.17841 0.679998 10.0217 0.679998C11.8651 0.679998 13.5101 1.11167 14.9567 1.975C16.4267 2.815 17.5817 3.97 18.4217 5.44C19.2851 6.91 19.7284 8.57833 19.7517 10.445L18.6667 11.285C18.6667 12.965 18.2701 14.4817 17.4767 15.835C16.7067 17.165 15.6451 18.2267 14.2917 19.02C12.9617 19.79 11.4451 20.175 9.74174 20.175ZM10.0217 17.725C11.3751 17.725 12.5767 17.41 13.6267 16.78C14.7001 16.15 15.5401 15.2867 16.1467 14.19C16.7767 13.07 17.0917 11.8217 17.0917 10.445C17.0917 9.045 16.7767 7.79667 16.1467 6.7C15.5401 5.60333 14.7001 4.74 13.6267 4.11C12.5767 3.45667 11.3751 3.13 10.0217 3.13C8.69174 3.13 7.49007 3.45667 6.41674 4.11C5.34341 4.74 4.49174 5.60333 3.86174 6.7C3.23174 7.79667 2.91674 9.045 2.91674 10.445C2.91674 11.8217 3.23174 13.07 3.86174 14.19C4.49174 15.2867 5.34341 16.15 6.41674 16.78C7.49007 17.41 8.69174 17.725 10.0217 17.725ZM18.3867 20C17.9901 20 17.6634 19.8833 17.4067 19.65C17.1501 19.3933 17.0217 19.0667 17.0217 18.67V12.685L17.6867 9.92L19.7517 10.445V18.67C19.7517 19.0667 19.6234 19.3933 19.3667 19.65C19.1101 19.8833 18.7834 20 18.3867 20Z" fill="white"/>
</svg>
